<?xml version="1.0" encoding="UTF-8"?> <svg xmlns="http://www.w3.org/2000/svg" viewBox="0 0 493.41 162.89"><defs><style>.cls-1{fill:#1d5b1b;}.cls-2{fill:#215d1d;}.cls-3{fill:#c7d001;}.cls-4{fill:#f5c701;}.cls-5{fill:#01979c;}.cls-6{fill:#c2cf01;}.cls-7{fill:#add5bc;}.cls-8{fill:#296319;}</style></defs><title>marafarmgroup-logo</title><g id="Layer_2" data-name="Layer 2"><g id="Layer_1-2" data-name="Layer 1"><path class="cls-1" d="M191.71,13.25H181.4V4.16H213v9.09h-10.5V44.59H191.71Z"></path><path class="cls-1" d="M227.08,4.16v15h13.13V4.16H251V44.59H240.21v-16H227.08v16H216.25V4.16Z"></path><path class="cls-1" d="M282.09,28.29H267.56v7.45H283.8v8.85H256.73V4.16H283V13h-15.4v6.52h14.53Z"></path><path class="cls-1" d="M218.05,88.94c-.13-4.59-.24-10-.22-16.31h-.17C216.42,78,214.71,84,213.4,88.48l-4,14.09h-8.47l-3.39-14c-1-4.35-2.28-10.33-3.23-15.89h-.12c-.22,5.69-.43,11.72-.61,16.31L193,103.41H183L185.48,63h14.58l2.67,10.88c1.11,4.5,2.31,9.85,3.15,14.82h.21c1.12-4.94,2.47-10.65,3.65-14.91l3-10.79H227l2,40.42H218.53Z"></path><path class="cls-1" d="M244.53,94l-2.28,9.37h-11.2L242.77,63H257.2l12.05,40.42H257.56L255,94Zm9-8-1.88-7.28c-.61-2.28-1.38-5.57-2-8h-.12c-.6,2.39-1.2,5.72-1.78,8L246,86.05Z"></path><path class="cls-1" d="M272.63,63.54a88.24,88.24,0,0,1,13.06-.87c6.19,0,10.63.85,13.67,3.15,2.6,2,4,4.86,4,8.82a10.78,10.78,0,0,1-6.93,9.77v.21c2.69,1.16,4.14,3.74,5.18,7.24,1.21,4.11,2.54,10,3.32,11.55H293.86A49.42,49.42,0,0,1,291,94.1c-1.09-4.84-2.57-5.85-5.92-5.85h-1.75v15.16H272.63Zm10.72,16.94h2.82c4.08,0,6.43-2,6.43-5s-2-4.75-5.59-4.78a17.16,17.16,0,0,0-3.66.24Z"></path><path class="cls-1" d="M319.08,94l-2.28,9.37H305.6L317.32,63h14.43l12.05,40.42H332.11L329.53,94Zm9-8-1.87-7.28c-.62-2.28-1.38-5.57-2-8H324c-.6,2.39-1.2,5.72-1.79,8l-1.73,7.23Z"></path><path class="cls-1" d="M347.17,63h26v8.84H358v7.45h14.23V88H358v15.37H347.17Z"></path><path class="cls-1" d="M384.93,94l-2.28,9.37h-11.2L383.18,63H397.6l12.06,40.42H398L395.38,94Zm9-8L392,78.77c-.61-2.28-1.38-5.57-2-8h-.12c-.6,2.39-1.2,5.72-1.78,8l-1.74,7.23Z"></path><path class="cls-1" d="M413,63.54a88.35,88.35,0,0,1,13.06-.87c6.19,0,10.63.85,13.67,3.15,2.6,2,4,4.86,4,8.82a10.78,10.78,0,0,1-6.93,9.77v.21c2.69,1.16,4.14,3.74,5.18,7.24,1.21,4.11,2.54,10,3.32,11.55H434.26a49.42,49.42,0,0,1-2.84-9.31c-1.09-4.84-2.58-5.85-5.92-5.85h-1.75v15.16H413Zm10.72,16.94h2.82c4.07,0,6.43-2,6.43-5s-2-4.75-5.59-4.78a17.16,17.16,0,0,0-3.66.24Z"></path><path class="cls-1" d="M482.42,88.94c-.14-4.59-.24-10-.23-16.31H482C480.78,78,479.08,84,477.77,88.48l-4,14.09h-8.48l-3.38-14c-1-4.35-2.28-10.33-3.23-15.89h-.12c-.22,5.69-.43,11.72-.61,16.31l-.62,14.47h-10L449.85,63h14.57l2.67,10.88c1.11,4.5,2.31,9.85,3.15,14.82h.21c1.13-4.94,2.48-10.65,3.66-14.91l3-10.79h14.25l2,40.42H482.9Z"></path><path class="cls-1" d="M218.89,160.34a48.37,48.37,0,0,1-14,2.3c-7.93,0-13.37-2-17-5.46-3.81-3.58-5.79-8.8-5.76-14.59.06-14.05,10.51-21.19,23.62-21.19,5.45,0,9.61,1,11.72,2L215.34,132a23.14,23.14,0,0,0-9.61-1.71c-6.68,0-12.2,3.5-12.2,11.71,0,7.53,4.89,11.91,11.52,11.91a12.66,12.66,0,0,0,3.4-.34v-7H203v-8.41h15.85Z"></path><path class="cls-1" d="M223.87,122.36a88.35,88.35,0,0,1,13.06-.87c6.19,0,10.63.86,13.67,3.15,2.6,2,4,4.86,4,8.82a10.77,10.77,0,0,1-6.93,9.77v.21c2.69,1.16,4.14,3.74,5.18,7.25,1.21,4.1,2.54,10,3.33,11.54H245.1a49.42,49.42,0,0,1-2.84-9.31c-1.09-4.84-2.57-5.85-5.92-5.85h-1.75v15.16H223.87Zm10.72,17h2.82c4.08,0,6.43-2,6.43-5s-2-4.75-5.59-4.78a17.16,17.16,0,0,0-3.66.24Z"></path><path class="cls-1" d="M296.6,141.61c0,13-7.81,21.28-20.28,21.28s-19.42-9.4-19.42-20.63c0-11.77,7.7-21.11,20.09-21.11C290,121.15,296.6,130.79,296.6,141.61Zm-28.25.45c0,7.61,3.32,12.25,8.49,12.25s8.31-5.06,8.31-12.35c0-7-3.12-12.24-8.37-12.24S268.35,134.63,268.35,142.06Z"></path><path class="cls-1" d="M311.33,121.81v22.94c0,6.1,2.11,9.55,6.4,9.55s6.4-3.13,6.4-9.55V121.81H335V144.1c0,12.49-6.21,18.79-17.58,18.79-11.05,0-16.88-6.07-16.88-19v-22Z"></path><path class="cls-1" d="M340.58,122.36a83.85,83.85,0,0,1,13.33-.87c5.82,0,10,1.05,12.82,3.23a12,12,0,0,1,4.6,9.73c0,4.09-1.36,7.67-3.93,10-3.27,2.92-8,4.23-13.46,4.23-1.05,0-2-.09-2.64-.14v13.72H340.58Zm10.72,17.85a14.61,14.61,0,0,0,2.47.15c4.22,0,6.86-2.18,6.86-5.66,0-3-2-5-6.12-5a15.53,15.53,0,0,0-3.21.25Z"></path><path class="cls-2" d="M91.31.16c14,1,26.2,7.06,37.85,14.15,16,9.75,25.52,24.75,30.61,42.31,4,13.72,6.21,27.92,3.42,42.29-1.39,7.13-5.82,13-9.34,19.14-14.75,25.69-37.4,40.15-66.5,43.64-17.46,2.1-34-2.4-49.08-11.78-10.89-6.79-18.69-16.39-25.86-27C1.18,106.39-1.1,88.15.42,69.05,1.36,57.36,6.11,46.9,13,37.43a137.78,137.78,0,0,1,20.23-22C42.62,7,53.37.52,66.17.2c1,0,4.25-.2,5.25-.2,1.42,0,12.34.05,12.94,0C85.88-.07,89.82.18,91.31.16ZM56.19,104.35l1.06,1.59,0,.08c2.78,2.57,5.74,4.83,9.48,5.84l1.5.49c9.35,4.07,18.45,3.65,27.26-1.59l1.91-1.17A30.32,30.32,0,0,0,115,87.35c2.72-14.59-4.45-30.76-18-37.24-24.29-11.64-44.08,1.66-50,22C43.48,84,46.69,95.5,56.26,104.38ZM44.92,83.07l-23-11.68V94.82Zm5.53,49.78,22.13,6.85c-1.48-8.8-2.82-16.75-4.07-24.21ZM78.52,39.59c4.07-7.93,7.74-15.1,11.66-22.76H66.86C70.22,24.83,74.22,31.78,78.52,39.59ZM44.66,30.17,64.63,47c.68-9.18,1.27-17.16,1.92-25.85ZM96.87,140.54l21.83-9.09-19.86-16.7C98.16,123.69,97.55,131.55,96.87,140.54ZM17,96.91c3.28,7.87,6.05,14.51,9.06,21.75L42.87,98.87Zm14.34,21.27L47,134.49c2.44-7.62,4.86-15.17,7.61-23.79Zm63-72.61c5.93-5.86,11.63-11.5,17.68-17.5L90.18,21.14C91.7,30,93,37.8,94.37,45.57ZM85,121.28,73.41,144H96.59C92.66,136.32,89,129.18,85,121.28ZM131.53,41.7,116.32,25.4c-2.41,7.55-4.83,15.12-7.53,23.54Zm3.66,69.12-24.61-7.9c2.88,8.84,5.37,16.47,7.76,23.79ZM40.5,65.42,23.89,47.65,17,69.44ZM50.91,53C48,44.05,45.44,36.46,43,29.24L26.92,45.16Zm96,36.91c-8.92,2-16.88,2.36-23.15,4.3L140,112.34Zm-.82-27.55-8.79-21.26L120.27,61C129.42,61.08,137.27,62.85,146.08,62.35ZM142,88.17V65L119.44,76.64ZM17.2,82.71c-1.15-3-2.9-4.81-6.06-4a4.25,4.25,0,0,0-3.5,4.73,4.52,4.52,0,0,0,4.42,4.51C15.33,88.07,16.65,85.88,17.2,82.71ZM52,13.74c-2.77.45-4.73,1.87-4.6,4.83.12,2.77,1.7,4.7,4.68,4.69s4.55-2,4.63-4.76C56.75,15.56,54.7,14.18,52,13.74ZM154.3,48.91c-.48-2.37-2-4.28-4.81-4.3a4.27,4.27,0,0,0-4.61,4.68A4.41,4.41,0,0,0,149.51,54C152.43,54.07,153.82,52.06,154.3,48.91Zm-16,74.89c-1.45-3-3.44-4.59-6.74-3.44a4.12,4.12,0,0,0-2.8,4.68,4.41,4.41,0,0,0,4.1,4.26C136.41,129.61,137.73,127.33,138.28,123.8ZM28.87,26.62c-3.08.45-5.37,1.83-5.05,5.33a4.43,4.43,0,0,0,4.12,4.26,4.37,4.37,0,0,0,4.88-3.3C34,29.38,31.81,27.8,28.87,26.62ZM78.7,3.53c-3.19.71-5.48,2.2-4.85,5.72.39,2.22,1.91,4,4.42,3.95,3.45-.1,4.82-2.34,4.91-5.7A6.46,6.46,0,0,0,78.7,3.53ZM55.56,148.92a6.08,6.08,0,0,0,5.63-.18,6.8,6.8,0,0,0,2-4.17,5.92,5.92,0,0,0-2.72-3.88,5.71,5.71,0,0,0-5.12.5C53,143.61,52.94,146.06,55.56,148.92Zm24.87,3.17c.52,2.67,1.77,4.68,4.8,4.67,3.31,0,4.43-2.27,4.82-5.13-.83-2.65-2.34-4.48-5.31-4.18C82.07,147.71,80.79,149.52,80.43,152.09Zm27.91-136c-.53-2.41-2-4.09-5-3.95-2.78.14-4.28,1.66-4.2,4.46s1.61,4.73,4.6,4.71S108.05,19.33,108.34,16.09ZM10.06,60.16c3.13.74,5.68.58,6.89-2.55A4.25,4.25,0,0,0,15,52.05a4.23,4.23,0,0,0-5.81.88C7.23,55.37,7.86,57.81,10.06,60.16ZM111,148.37c2.93-.43,4.45-2.19,4.28-5.07s-2.17-4.33-5.06-4.14-4.16,1.94-4,4.63C106.34,146.7,108,148.24,111,148.37Zm44.39-71.54c-.18-2.9-1.71-4.59-4.67-4.58-2.68,0-4.4,1.45-4.49,4.22s1.31,4.76,4.34,4.91S155,79.71,155.39,76.83Zm-3.51,30.7c3-.25,4.44-2,4.34-4.87a4.09,4.09,0,0,0-4.45-4.26c-2.94,0-4.66,1.58-4.61,4.57S148.86,107.45,151.88,107.53Zm-132.49,3c-.43-2.9-2.09-4.45-5.05-4.26-2.74.18-4.28,1.82-4.19,4.56.1,2.91,1.67,4.67,4.71,4.61S19.13,113.34,19.39,110.5ZM128.73,32.06c3.21.78,5.57.26,6.57-3a4.15,4.15,0,0,0-2.24-5.43c-2.11-1-4.36-.77-5.83,1.25C125.3,27.56,126.3,29.88,128.73,32.06ZM36.36,132.55c-.47-2.81-2.09-4.4-5.05-4.19a4.05,4.05,0,0,0-4.14,4.56c.09,2.92,1.67,4.62,4.69,4.55S36.13,135.44,36.36,132.55Z"></path><path class="cls-3" d="M56.26,104.38C46.69,95.5,43.48,84,47,72.15c6-20.38,25.76-33.68,50.05-22,13.53,6.48,20.7,22.65,18,37.24a30.32,30.32,0,0,1-17.54,22.24l-.66-.66c1.13-2-.21-3.38-1.06-5-3.08-5.75-6.83-11.18-8.52-17.61,2.26-.64,2.69,1.45,3.67,2.57,3.4,3.85,6.1,8.31,10.2,11.55,1.2,1,2.4,1.83,4.11,1.12,1.22-1,1.72-2.29,1.3-4.68C99.91,93.5,94.83,87.19,87.76,83l-.51,3.38c-1.78-.12-1.59-3-4-2.61.94,9.32,5.26,17.53,8.16,26.35h3.62c.16.2.32.41.47.62-8.81,5.23-17.91,5.65-27.26,1.58l-.08.07,4.3-1.15c1-9.18,3.37-18.18,3-27.59-4.23,8.8-8.15,17.61-8.08,27.59a5.48,5.48,0,0,0-.59.59c-3.74-1-6.7-3.27-9.48-5.83,1.3-.62,3.11.29,4.39-2,2-6.74,7-12.85,9.83-19.95-1.6-.58-2.17,1.09-3.26.25C61.5,83,57,87.9,51.2,89.54c.47,2.35.48,4,2.44,5.08,5.76-2.06,9.72-6.9,14.66-10.32.54,3.15-2.27,4.43-3.64,6.5C61.71,95.23,56.28,98.13,56.26,104.38ZM99.21,74.32c-.06,2.07,1,3,3,3.06-.65,1.44-1.83,2.85,0,4.65a25.87,25.87,0,0,0,9.92-.39c.41-2.16.65-4.06-.76-5.89-3.13.36-6,2.31-9.19,1.68,2.55-2.18,6.09-2.15,8.9-3.89.29-1.83.65-3.64-1.8-4.32l-.08-1c0-2.24,0-4.44-3-4.88l-1.1-1c1.3-3.61-2-4.28-3.78-5.91l-1.54-.06c-1.67-2.91-4.6-3.87-7.26-5.16-2.92,3.11-2.41,7.54-5.33,10.22-.54-3.83,2.45-7.09,2-11a20,20,0,0,0-8.12-1.76c-.1,2.11-.18,3.9-.27,5.7H79.53c-.59-1.86.29-4-1.19-5.89-1.34.15-2.88-.52-4.22,1.11.1,1.46.22,3.1.34,4.74l-1,0c-.65-1.62-.62-3.56-2.19-4.8a5.38,5.38,0,0,0-3.87,1.65c-.58,1.91,1.87,3.25.81,5.17-1.86-.41-1.77-3.15-4.2-3.28-2,1.61-5.18,2.41-4.78,6.2l-1.06,1.08c-4.65,1.63-5.86,4.28-3.6,7.83l-1.36.15c-3.87-.08-3.08,3-3.55,5.23-.16.59-.31,1.18-.47,1.76-.21,2.06-1.6,4.06-.25,6.35,3.12.88,6.39.54,9.54.44,1.76-1.47,1.89-3,.69-4.79l3.22-1.93.87,1.07c0,1.92-2.43,3.24-1.44,5.55h5.88c5.21-11.73,20.67-13.47,26.7,0,1.17-.1,2.52.72,3.54-.62.43-5.24-4.69-8.23-5.17-13.07,2.28,2.14,3.58-.76,5.38-1l1,.79c-.81,1.15-2.52,1.48-2.8,3.07a3.26,3.26,0,0,0,2.89,2.28C99.24,73.78,99.22,74.05,99.21,74.32Zm-22,38.47c2.82.6,4.69,1.11,7.15-.85-2.08-9.09-1.31-18.94-4-28.41C76.88,93.14,79.06,103,77.16,112.79Zm34-24.91L93.81,83.15c4.16,5.16,10,6.95,14.89,9.55C110.87,91.64,111.19,90.26,111.14,87.88Z"></path><path class="cls-4" d="M44.92,83.07l-23,11.75V71.39Z"></path><path class="cls-5" d="M50.45,132.85l18.06-17.36c1.25,7.46,2.59,15.41,4.07,24.21Z"></path><path class="cls-5" d="M78.52,39.59c-4.3-7.81-8.3-14.76-11.66-22.76H90.18C86.26,24.49,82.59,31.66,78.52,39.59Z"></path><path class="cls-4" d="M44.66,30.17l21.89-9C65.9,29.87,65.31,37.85,64.63,47Z"></path><path class="cls-6" d="M96.87,140.54c.68-9,1.29-16.85,2-25.79l19.86,16.7Z"></path><path class="cls-7" d="M17,96.91l25.83,2L26.1,118.66C23.09,111.42,20.32,104.78,17,96.91Z"></path><path class="cls-6" d="M31.38,118.18l23.23-7.48c-2.75,8.62-5.17,16.17-7.61,23.79Z"></path><path class="cls-6" d="M94.37,45.57C93,37.8,91.7,30,90.18,21.14l21.87,6.93C106,34.07,100.3,39.71,94.37,45.57Z"></path><path class="cls-4" d="M85,121.28c4,7.9,7.68,15,11.61,22.72H73.41Z"></path><path class="cls-7" d="M131.53,41.7l-22.74,7.24c2.7-8.42,5.12-16,7.53-23.54Z"></path><path class="cls-7" d="M135.19,110.82l-16.85,15.89c-2.39-7.32-4.88-14.95-7.76-23.79Z"></path><path class="cls-5" d="M40.5,65.42,17,69.44l6.85-21.79Z"></path><path class="cls-6" d="M50.91,53l-24-7.83L43,29.24C45.44,36.46,48,44.05,50.91,53Z"></path><path class="cls-5" d="M146.9,89.9,140,112.34,123.75,94.2C130,92.26,138,91.93,146.9,89.9Z"></path><path class="cls-4" d="M146.08,62.35c-8.81.5-16.66-1.27-25.81-1.35l17-19.91Z"></path><path class="cls-6" d="M142,88.17,119.44,76.64,142,65Z"></path><path class="cls-8" d="M56.26,104.38c0-6.25,5.45-9.15,8.4-13.58,1.37-2.07,4.18-3.35,3.64-6.5l0,.07c1.09.84,1.66-.83,3.26-.25-2.8,7.1-7.82,13.21-9.83,19.95-1.28,2.25-3.09,1.34-4.39,2l0-.1c.2-.9,0-1.51-1.06-1.58Z"></path><path class="cls-4" d="M17.2,82.71c-.55,3.17-1.87,5.36-5.14,5.2A4.52,4.52,0,0,1,7.64,83.4a4.25,4.25,0,0,1,3.5-4.73C14.3,77.9,16.05,79.73,17.2,82.71Z"></path><path class="cls-4" d="M52,13.74c2.74.44,4.79,1.82,4.71,4.76C56.59,21.23,55,23.24,52,23.26s-4.56-1.92-4.68-4.69C47.23,15.61,49.19,14.19,52,13.74Z"></path><path class="cls-4" d="M154.3,48.91c-.48,3.15-1.87,5.16-4.79,5.12a4.41,4.41,0,0,1-4.63-4.74,4.27,4.27,0,0,1,4.61-4.68C152.33,44.63,153.82,46.54,154.3,48.91Z"></path><path class="cls-7" d="M138.28,123.8c-.55,3.53-1.87,5.81-5.44,5.5a4.41,4.41,0,0,1-4.1-4.26,4.12,4.12,0,0,1,2.8-4.68C134.84,119.21,136.83,120.8,138.28,123.8Z"></path><path class="cls-6" d="M28.87,26.62c2.94,1.18,5.09,2.76,3.95,6.29a4.37,4.37,0,0,1-4.88,3.3A4.43,4.43,0,0,1,23.82,32C23.5,28.45,25.79,27.07,28.87,26.62Z"></path><path class="cls-5" d="M78.7,3.53a6.46,6.46,0,0,1,4.48,4c-.09,3.36-1.46,5.6-4.91,5.7-2.51.08-4-1.73-4.42-3.95C73.22,5.73,75.51,4.24,78.7,3.53Z"></path><path class="cls-5" d="M55.56,148.92c-2.62-2.86-2.59-5.31-.26-7.73a5.71,5.71,0,0,1,5.12-.5,5.92,5.92,0,0,1,2.72,3.88,6.8,6.8,0,0,1-2,4.17A6.08,6.08,0,0,1,55.56,148.92Z"></path><path class="cls-4" d="M80.43,152.09c.36-2.57,1.64-4.38,4.31-4.64,3-.3,4.48,1.53,5.31,4.18-.39,2.86-1.51,5.11-4.82,5.13C82.2,156.77,81,154.76,80.43,152.09Z"></path><path class="cls-6" d="M108.34,16.09c-.29,3.24-1.61,5.2-4.63,5.22s-4.51-1.8-4.6-4.71,1.42-4.32,4.2-4.46C106.32,12,107.81,13.68,108.34,16.09Z"></path><path class="cls-5" d="M10.06,60.16c-2.2-2.35-2.83-4.79-.84-7.23A4.23,4.23,0,0,1,15,52.05,4.25,4.25,0,0,1,17,57.61C15.74,60.74,13.19,60.9,10.06,60.16Z"></path><path class="cls-6" d="M111,148.37c-3-.13-4.66-1.67-4.8-4.58-.14-2.69,1.21-4.45,4-4.63s4.88,1.13,5.06,4.14S113.93,147.94,111,148.37Z"></path><path class="cls-6" d="M155.39,76.83c-.37,2.88-1.77,4.69-4.82,4.55s-4.43-2-4.34-4.91,1.81-4.22,4.49-4.22C153.68,72.24,155.21,73.93,155.39,76.83Z"></path><path class="cls-5" d="M151.88,107.53c-3-.08-4.67-1.63-4.72-4.56s1.67-4.59,4.61-4.57a4.09,4.09,0,0,1,4.45,4.26C156.32,105.54,154.84,107.28,151.88,107.53Z"></path><path class="cls-7" d="M19.39,110.5c-.26,2.84-1.44,4.85-4.53,4.91s-4.61-1.7-4.71-4.61c-.09-2.74,1.45-4.38,4.19-4.56C17.3,106.05,19,107.6,19.39,110.5Z"></path><path class="cls-7" d="M128.73,32.06c-2.43-2.18-3.43-4.5-1.5-7.16,1.47-2,3.72-2.24,5.83-1.25a4.15,4.15,0,0,1,2.24,5.43C134.3,32.32,131.94,32.84,128.73,32.06Z"></path><path class="cls-6" d="M36.36,132.55c-.23,2.89-1.41,4.85-4.5,4.92s-4.6-1.63-4.69-4.55a4.05,4.05,0,0,1,4.14-4.56C34.27,128.15,35.89,129.74,36.36,132.55Z"></path><path class="cls-3" d="M97.44,109.59l-1.91,1.17-.46-.61,1.71-1.22Z"></path><path class="cls-3" d="M68.27,112.35l-1.5-.49a5.48,5.48,0,0,1,.59-.59c.52.21,1.15.34.83,1.15Z"></path><path class="cls-3" d="M56.19,104.35c1,.07,1.26.68,1.06,1.58Z"></path><path class="cls-8" d="M92.81,68.41c.48,4.84,5.6,7.83,5.17,13.07-1,1.34-2.37.52-3.54.62-6-13.52-21.49-11.78-26.7,0H61.86c-1-2.31,1.39-3.63,1.44-5.55,1-1.2,2.59-2.17,1.94-4.16l0,.06c1,.27,1.2-.21,1.06-1.06l0,.07c7.48-5,15.33-7.24,24-3.16.83.39,1.64,1,2.54.13Z"></path><path class="cls-8" d="M77.16,112.79c1.9-9.76-.28-19.65,3.13-29.26,2.71,9.47,1.94,19.32,4,28.41C81.85,113.9,80,113.39,77.16,112.79Z"></path><path class="cls-8" d="M96.78,108.93l-1.71,1.22H91.44c-2.9-8.82-7.22-17-8.16-26.35,2.38-.41,2.19,2.49,4,2.61l0,0c1.69,6.43,5.44,11.86,8.52,17.61C96.57,105.55,97.91,107,96.78,108.93Z"></path><path class="cls-8" d="M68.19,112.42c.32-.81-.31-.94-.83-1.15-.07-10,3.85-18.79,8.08-27.59.42,9.41-1.94,18.41-3,27.59Z"></path><path class="cls-2" d="M87.2,61.42c2.92-2.68,2.41-7.11,5.33-10.22,2.66,1.29,5.59,2.25,7.26,5.16a1.88,1.88,0,0,0-.58,2.06l.06-.07c-.88-.18-1.11.31-1.07,1.06l.06-.07c-1.58.43-2.75,1.13-2,3.08l0-.06c-2.3-.28-2.61,1.46-3.07,3l0-.06a1.58,1.58,0,0,0-1,2.08l.05-.07-2-.07c-1.09-1.57-4.22-1.06-4-4l-.06.09c.69,0,.91-.45.94-1l.12-1Z"></path><path class="cls-8" d="M87.25,86.41,87.76,83c7.07,4.16,12.15,10.47,18.72,13.89.42,2.39-.08,3.68-1.3,4.68-1.71.71-2.91-.17-4.11-1.12-4.1-3.24-6.8-7.7-10.2-11.55-1-1.12-1.41-3.21-3.67-2.57Z"></path><path class="cls-2" d="M59.27,59.31c-.4-3.79,2.82-4.59,4.78-6.2,2.43.13,2.34,2.87,4.2,3.28l0,0a2.19,2.19,0,0,0,1,2.08l0-.09,1.06,1.58-.08,0,1.21,5.73a4.72,4.72,0,0,1-5.2,2.74l.07.08a1.81,1.81,0,0,0-1.05-2.1l.06.08L64.2,65.34l.07.07A14.86,14.86,0,0,0,59.27,59.31Z"></path><path class="cls-2" d="M80.79,54.36c.09-1.8.17-3.59.27-5.7a20,20,0,0,1,8.12,1.76c.47,3.91-2.52,7.17-2,11l.06-.08c-.78-.08-.89.44-.92,1l-.14,1,.06-.09c-1.42.9-2.88,1.5-4.82.5Z"></path><path class="cls-6" d="M80.79,54.36c.22,3.22.44,6.44.65,9.47,1.94,1,3.4.4,4.82-.5-.21,2.89,2.92,2.38,4,4,0,.32,0,.65,0,1-8.68-4.08-16.53-1.85-24,3.16,0-1,0-2,0-3.06a4.72,4.72,0,0,0,5.2-2.74l-1.21-5.73c2.15.87,1.22,4.51,4.45,4.8C76,61,73.68,57.77,73.5,54.37l1,0c2.11,2.93.41,7.62,5.07,10.84V54.37Z"></path><path class="cls-2" d="M66.19,68.35c0,1,0,2,0,3.06l0-.07L65.19,72.4l0-.06h-3l.07,0c-1.9-2.6-4.94-3.09-7.67-4.17-2.26-3.55-1-6.2,3.6-7.83,1.62,2.16,3.17,4.4,6.06,5l-.07-.07c0,.75.32,1.11,1.07,1.07l-.06-.08a2,2,0,0,0,1.05,2.1Z"></path><path class="cls-8" d="M68.3,84.3c-4.94,3.42-8.9,8.26-14.66,10.32-2-1.07-2-2.73-2.44-5.08,5.8-1.64,10.3-6.58,17-5.17Z"></path><path class="cls-8" d="M111.14,87.88c0,2.38-.27,3.76-2.44,4.82-4.94-2.6-10.73-4.39-14.89-9.55Z"></path><path class="cls-2" d="M92.81,68.41l0,0-.52-1-.05.07c.93-.4,1.54-1,1-2.08l0,.06c2.25.23,2.54-1.53,3.07-3l0,.06a3.31,3.31,0,0,0,2-3.08l-.06.07c.78.07,1-.39,1.07-1.06l-.06.07,2.12-2c1.79,1.63,5.08,2.3,3.78,5.91a20.86,20.86,0,0,0-6.92,5C96.39,67.65,95.09,70.55,92.81,68.41Z"></path><path class="cls-8" d="M73.5,54.37c.18,3.4,2.45,6.62,1.13,10.31-3.23-.29-2.3-3.93-4.45-4.8l.08,0c0-.73,0-1.5-1.06-1.58l0,.09c.14-.94.45-2-1-2.08l0,0c1.06-1.92-1.39-3.26-.81-5.17a5.38,5.38,0,0,1,3.87-1.65C72.88,50.81,72.85,52.75,73.5,54.37Z"></path><path class="cls-8" d="M59.21,77.36c1.2,1.75,1.07,3.32-.69,4.79-3.15.1-6.42.44-9.54-.44-1.35-2.29,0-4.29.25-6.35,3.58-.46,6.46,2.5,10,2Z"></path><path class="cls-8" d="M99.26,73.5a3.26,3.26,0,0,1-2.89-2.28c.28-1.59,2-1.92,2.81-3.07a24,24,0,0,0,7-4.83c2.94.44,3,2.64,3,4.88-.57.2-1.18.38-1,1.21l.07,0c-1-.26-1.87-.25-2.08,1l.08,0c-1-.29-1.81-.14-2.08,1l.08-.06c-.93-.1-1.82-.14-2.09,1.06l.09-.06A2.91,2.91,0,0,0,99.26,73.5Z"></path><path class="cls-2" d="M79.53,54.37v10.8c-4.66-3.22-3-7.91-5.07-10.84-.12-1.64-.24-3.28-.34-4.74,1.34-1.63,2.88-1,4.22-1.11C79.82,50.36,78.94,52.51,79.53,54.37Z"></path><path class="cls-8" d="M62.43,75.43l-3.22,1.93.06,0c-2.66-2.6-6.34-2.64-9.57-3.8.47-2.23-.32-5.31,3.55-5.23,2.75,1.93,5.62,3.58,9,4l-.07,0C62.28,73.37,62.36,74.4,62.43,75.43Z"></path><path class="cls-8" d="M102.14,77.43c3.24.63,6.06-1.32,9.19-1.68,1.41,1.83,1.17,3.73.76,5.89a25.87,25.87,0,0,1-9.92.39c-1.78-1.8-.6-3.21,0-4.65Z"></path><path class="cls-8" d="M102.22,77.38c-2,0-3.07-1-3-3.06,1-.73,2.49-.62,3.07-2l-.08.06c.9.06,1.76,0,2.08-1.06l-.08.06c.89,0,1.73,0,2.08-1l-.08,0c.89,0,1.72,0,2.08-1l-.07,0,1-.19c2.45.68,2.09,2.49,1.8,4.32-2.81,1.74-6.35,1.71-8.9,3.89Z"></path><path class="cls-6" d="M106.21,63.32a24,24,0,0,1-7,4.83l-1-.79a20.86,20.86,0,0,1,6.92-5Z"></path><path class="cls-6" d="M49.7,73.6c3.23,1.16,6.91,1.2,9.57,3.8-3.58.46-6.46-2.5-10-2C49.39,74.78,49.54,74.19,49.7,73.6Z"></path><path class="cls-6" d="M62.28,72.39c-3.41-.44-6.28-2.09-9-4l1.36-.15C57.34,69.3,60.38,69.79,62.28,72.39Z"></path><path class="cls-6" d="M64.27,65.41c-2.89-.62-4.44-2.86-6.06-5l1.06-1.08A14.86,14.86,0,0,1,64.27,65.41Z"></path><path class="cls-6" d="M62.43,75.43c-.07-1-.15-2.06-.22-3.09h3c.65,2-.9,3-1.94,4.16Z"></path><path class="cls-6" d="M102.28,72.35c-.58,1.35-2.09,1.24-3.07,2,0-.27,0-.54.05-.82A2.91,2.91,0,0,1,102.28,72.35Z"></path><path class="cls-6" d="M101.33,56.42l-2.12,2a1.88,1.88,0,0,1,.58-2.06Z"></path><path class="cls-6" d="M109.24,69.22l-1,.19c-.23-.83.38-1,1-1.21C109.18,68.54,109.21,68.88,109.24,69.22Z"></path><path class="cls-3" d="M92.26,67.35l.52,1c-.9.92-1.71.26-2.54-.13,0-.32,0-.65,0-1Z"></path><path class="cls-6" d="M65.19,72.4l1.06-1.06C66.39,72.19,66.17,72.67,65.19,72.4Z"></path><path class="cls-6" d="M96.27,62.36c-.53,1.51-.82,3.27-3.07,3C93.66,63.82,94,62.08,96.27,62.36Z"></path><path class="cls-6" d="M98.26,59.34a3.31,3.31,0,0,1-2,3.08C95.51,60.47,96.68,59.77,98.26,59.34Z"></path><path class="cls-6" d="M93.25,65.34c.5,1.11-.11,1.68-1,2.08A1.58,1.58,0,0,1,93.25,65.34Z"></path><path class="cls-6" d="M99.27,58.35c0,.67-.29,1.13-1.07,1.06C98.16,58.66,98.39,58.17,99.27,58.35Z"></path><path class="cls-3" d="M86.34,62.38c0-.6.14-1.12.92-1l-.12,1Z"></path><path class="cls-6" d="M86.34,62.38h.8c0,.59-.25,1-.94,1C86.25,63.07,86.3,62.72,86.34,62.38Z"></path><path class="cls-3" d="M68.2,56.35c1.5.11,1.19,1.14,1,2.08A2.19,2.19,0,0,1,68.2,56.35Z"></path><path class="cls-6" d="M66.26,68.43a2,2,0,0,1-1.05-2.1A1.81,1.81,0,0,1,66.26,68.43Z"></path><path class="cls-6" d="M65.27,66.41c-.75,0-1.11-.32-1.07-1.07C64.56,65.7,64.92,66.05,65.27,66.41Z"></path><path class="cls-6" d="M69.2,58.34c1,.08,1,.85,1.06,1.58Z"></path><path class="cls-6" d="M104.28,71.35c-.32,1.09-1.18,1.12-2.08,1.06C102.46,71.21,103.35,71.25,104.28,71.35Z"></path><path class="cls-6" d="M106.28,70.36c-.35,1-1.19,1.1-2.08,1C104.47,70.22,105.26,70.07,106.28,70.36Z"></path><path class="cls-6" d="M108.28,69.36c-.36,1-1.19,1.09-2.08,1C106.41,69.11,107.28,69.1,108.28,69.36Z"></path></g></g></svg> 